<?xml version="1.0" encoding="utf-8"?>
<!-- Generator: Adobe Illustrator 27.9.1, SVG Export Plug-In . SVG Version: 6.00 Build 0)  -->
<svg version="1.1" xmlns="http://www.w3.org/2000/svg" xmlns:xlink="http://www.w3.org/1999/xlink" x="0px" y="0px"
	 viewBox="0 0 26.9 24" style="enable-background:new 0 0 26.9 24;" xml:space="preserve">
<style type="text/css">
	.st0{fill:none;stroke:#EC0000;stroke-width:1.035;stroke-linecap:round;stroke-linejoin:round;stroke-miterlimit:10;}
</style>
<g id="Layer_1">
	<g id="Layer_1_00000022544137395263816780000011809826961513350316_">
		<g id="Layer_1_00000093178552056765434400000009731763051285027718_">
		</g>
	</g>
</g>
<g id="Capa_1_00000179626448164197039620000004758827605020303761_">
	<path class="st0" d="M18.1,9.3c-0.6,0.8-1.6,1.3-2.6,1.3c-0.9,0-1.8-0.4-2.4-1L11.6,11c-1.3,1.3-2,1.2-3.2,0L12,7.5
		c0,0,0.7-0.7,1.3-1c0.6-0.3,2.1-0.2,2.1-0.2l1.8-1.8 M25.5,4.9c0.7,0.7,0.7,1.8,0,2.5v0l-1.9,1.9l-6-6l1.6-1.6 M1.3,6.1
		c-0.7,0.7-0.7,1.8,0,2.5v0l1.9,1.9l6-6L7.6,2.9 M19.9,14.1c0,0,0.6-0.5,0.8-2.8c0.1-0.8,0.9-2.2,0.9-2.2 M12,22
		c-0.4,0.4-1.1,0.4-1.5,0c-0.4-0.4-0.4-1.1,0-1.5l-0.1,0.1L9.9,21c-0.4,0.4-1.1,0.4-1.5,0c-0.4-0.4-0.4-1.1,0-1.5L7.8,20
		c-0.4,0.4-1.1,0.4-1.5,0c-0.4-0.4-0.4-1.1,0-1.5l0.9-0.9l0.1-0.1c-0.4,0.4-1.1,0.4-1.5,0c-0.4-0.4-0.4-1.1,0-1.5 M5.1,10.5
		c0,0,1.2,3.7,1.6,4.6C7.1,15.9,8.3,17,8.3,17l4.8,4.8c0.4,0.4,1.1,0.4,1.5,0c0.4-0.4,0.4-1.1,0-1.5l-3.2-3.2l3.7,3.7
		c0.4,0.4,1.1,0.4,1.5,0c0.4-0.4,0.4-1.1,0-1.5l-3.9-3.9l4.5,4.5c0.4,0.4,1.1,0.4,1.5,0c0.4-0.4,0.4-1.1,0-1.5L14,13.6l3.9,3.9
		c0.4,0.4,1.1,0.4,1.5,0c0.4-0.4,0.4-1.1,0-1.5l-4.1-4.1 M10.6,7.1L9.4,5.9"/>
</g>
</svg>
